# xmcd
#
# Track frame offsets:
#	150
#	17727
#	35257
#	51300
#	67207
#	79292
#
# Disc length: 1244 seconds
#
# Revision: 2
# Processed by: cddbd v1.5.2PL0 Copyright (c) Steve Scherf et al.
# Submitted via: audiograbber 1.83.01
#
DISCID=4e04da06
DTITLE=Various Artist - Comstock Records International Country Music Sampler Summer 19
DTITLE=96
DYEAR=1996
DGENRE=Country
TTITLE0=KC Jones - The Only Way is the Highway
TTITLE1=Bente Boe - Somebody Else's Baby
TTITLE2=Michael and His Big Roll Band - Honky Tonk Rag
TTITLE3=George McAnthony - Love is the Road
TTITLE4=Jany Szabo - If I Knew Now (What I Knew Then)
TTITLE5=Dominic D'Arcy - I'm Going Back
EXTD=
EXTT0=
EXTT1=
EXTT2=
EXTT3=
EXTT4=
EXTT5=
PLAYORDER=
